<?xml version="1.0" encoding="UTF-8"?>
<svg xmlns="http://www.w3.org/2000/svg" viewBox="0 0 1200 630" width="1200" height="630">
  <defs>
    <linearGradient id="g62189" x1="70.33683215379%" y1="4.3227271178699525%" x2="29.663167846209994%" y2="95.67727288213004%">
      <stop offset="0%" stop-color="#8B5CF6"/>
      <stop offset="100%" stop-color="#7C3AED"/>
    </linearGradient>
  </defs>
  <rect width="1200" height="630" fill="url(#g62189)"/>
  <polygon points="156.33644728921354,250 276.33644728921354,190 396.33644728921354,250" fill="rgba(255,255,255,0.06)" stroke="rgba(255,255,255,0.12)" stroke-width="2"/><rect x="170.33644728921354" y="250" width="12" height="150" fill="rgba(255,255,255,0.08)"/><rect x="220.33644728921354" y="250" width="12" height="150" fill="rgba(255,255,255,0.08)"/><rect x="270.33644728921354" y="250" width="12" height="150" fill="rgba(255,255,255,0.08)"/><rect x="320.33644728921354" y="250" width="12" height="150" fill="rgba(255,255,255,0.08)"/><rect x="370.33644728921354" y="250" width="12" height="150" fill="rgba(255,255,255,0.08)"/><rect x="146.33644728921354" y="400" width="260" height="12" rx="2" fill="rgba(255,255,255,0.1)"/><path d="M 925.0826428178698 178.34571465849876 L 970.0826428178698 198.34571465849876 L 970.0826428178698 238.34571465849876 C 970.0826428178698 268.34571465849876 925.0826428178698 288.34571465849876 925.0826428178698 288.34571465849876 C 925.0826428178698 288.34571465849876 880.0826428178698 268.34571465849876 880.0826428178698 238.34571465849876 L 880.0826428178698 198.34571465849876 Z" fill="rgba(255,255,255,0.06)" stroke="rgba(255,255,255,0.15)" stroke-width="2"/><text x="634.0511987451464" y="181.5320133510977" font-family="sans-serif" font-size="20.473140160553157" fill="rgba(255,255,255,0.16699480318464338)">★</text><text x="1081.3890145160258" y="83.99804987944663" font-family="sans-serif" font-size="23.5420955568552" fill="rgba(255,255,255,0.09733613889664412)">★</text><text x="846.8658983707428" y="196.9484231993556" font-family="sans-serif" font-size="21.144402030855417" fill="rgba(255,255,255,0.16662255592644215)">★</text><text x="961.3272764487192" y="82.08410459570587" font-family="sans-serif" font-size="27.803482952527702" fill="rgba(255,255,255,0.104488570750691)">★</text><text x="637.8521580714732" y="154.71861945465207" font-family="sans-serif" font-size="33.86520516499877" fill="rgba(255,255,255,0.11569723255932332)">★</text>
  <circle cx="740.2779366821051" cy="284.0803457214497" r="1.2292362791486084" fill="rgba(255,255,255,0.04638251917902381)"/><circle cx="1046.3518654927611" cy="389.7348013543524" r="1.1630735476501286" fill="rgba(255,255,255,0.033892359731253235)"/><circle cx="22.8263427503407" cy="611.7335264990106" r="2.842650195583701" fill="rgba(255,255,255,0.07235855747247115)"/><circle cx="645.8289527334273" cy="628.141082029324" r="2.552459439728409" fill="rgba(255,255,255,0.07187492879573257)"/><circle cx="844.0628715790808" cy="92.77882844908163" r="1.4501784145832062" fill="rgba(255,255,255,0.07244473420549184)"/><circle cx="784.4884090125561" cy="198.55046057375148" r="2.9372446248307824" fill="rgba(255,255,255,0.06338901186361909)"/><circle cx="534.2443177476525" cy="232.15529665583745" r="1.3298209863714874" fill="rgba(255,255,255,0.0741418319940567)"/><circle cx="195.28781035915017" cy="438.3878526650369" r="1.0426237205974758" fill="rgba(255,255,255,0.07416624151635914)"/><circle cx="623.9178453572094" cy="119.5881758001633" r="1.065650905482471" fill="rgba(255,255,255,0.07718156638555229)"/><circle cx="864.5575060509145" cy="421.90849932376295" r="2.2048290576785803" fill="rgba(255,255,255,0.06968226007418707)"/><circle cx="358.4113659337163" cy="531.6291669756174" r="2.5544207505881786" fill="rgba(255,255,255,0.030051859579980373)"/><circle cx="705.8248981833458" cy="509.69627120532095" r="2.740603005513549" fill="rgba(255,255,255,0.057844257187098264)"/><circle cx="76.32779935374856" cy="483.0017787893303" r="2.728064686525613" fill="rgba(255,255,255,0.06531244702171535)"/><circle cx="126.84633806347847" cy="554.5049233781174" r="2.9550704774446785" fill="rgba(255,255,255,0.041573423328809436)"/><circle cx="255.35303726792336" cy="223.98413341026753" r="1.7066014725714922" fill="rgba(255,255,255,0.04093211426632479)"/><circle cx="1110.6862208805978" cy="115.12255540816113" r="2.164788558613509" fill="rgba(255,255,255,0.07566977269714698)"/><circle cx="776.2173718772829" cy="296.0562775027938" r="1.7254882650449872" fill="rgba(255,255,255,0.06563005819451065)"/><circle cx="770.7784873433411" cy="134.66813446953893" r="1.970726110972464" fill="rgba(255,255,255,0.07665883225388825)"/><circle cx="808.5331882350147" cy="601.3700251816772" r="1.639972744975239" fill="rgba(255,255,255,0.07667644478613511)"/><circle cx="531.4080655574799" cy="241.52502488577738" r="1.0150562678463757" fill="rgba(255,255,255,0.04988296195631847)"/>
  <text x="600" y="335" font-family="system-ui, -apple-system, 'Segoe UI', sans-serif" font-size="42" font-weight="700" fill="rgba(0,0,0,0.15)" text-anchor="middle" letter-spacing="1">National Teacher Qualification Exam China</text>
  <text x="600" y="332" font-family="system-ui, -apple-system, 'Segoe UI', sans-serif" font-size="42" font-weight="700" fill="white" text-anchor="middle" letter-spacing="1">National Teacher Qualification Exam China</text>
  <g transform="translate(1140, 575)">
    <rect x="0" y="0" width="40" height="40" rx="8" fill="rgba(255,255,255,0.15)"/>
    <text x="20" y="29" font-family="sans-serif" font-weight="bold" font-size="24" fill="rgba(255,255,255,0.6)" text-anchor="middle">K</text>
  </g>
</svg>